<svg width="60" height="60" viewBox="0 0 60 60" fill="none" xmlns="http://www.w3.org/2000/svg">
<path d="M30 40.9616L40.9616 30L30 19.0384L27.7051 21.3333L34.7051 28.3333H18.3333V31.6667H34.7051L27.7051 38.6667L30 40.9616ZM30.0112 60C25.8627 60 21.9624 59.2128 18.3103 57.6384C14.6583 56.064 11.4815 53.9273 8.77992 51.2283C6.07842 48.5293 3.93972 45.3554 2.36383 41.7068C0.787944 38.0582 0 34.1596 0 30.0112C0 25.8627 0.787195 21.9624 2.36158 18.3103C3.93603 14.6583 6.07275 11.4815 8.77175 8.77992C11.4707 6.07842 14.6446 3.93972 18.2932 2.36384C21.9418 0.787947 25.8404 0 29.9888 0C34.1373 0 38.0376 0.787194 41.6897 2.36158C45.3417 3.93603 48.5185 6.07275 51.2201 8.77175C53.9216 11.4707 56.0603 14.6446 57.6362 18.2932C59.2121 21.9418 60 25.8404 60 29.9888C60 34.1373 59.2128 38.0376 57.6384 41.6897C56.064 45.3417 53.9273 48.5185 51.2283 51.2201C48.5293 53.9216 45.3554 56.0603 41.7068 57.6362C38.0582 59.2121 34.1596 60 30.0112 60ZM30 56.6667C37.4444 56.6667 43.75 54.0833 48.9167 48.9167C54.0833 43.75 56.6667 37.4444 56.6667 30C56.6667 22.5556 54.0833 16.25 48.9167 11.0833C43.75 5.91667 37.4444 3.33333 30 3.33333C22.5556 3.33333 16.25 5.91667 11.0833 11.0833C5.91667 16.25 3.33333 22.5556 3.33333 30C3.33333 37.4444 5.91667 43.75 11.0833 48.9167C16.25 54.0833 22.5556 56.6667 30 56.6667Z" fill="white"/>
</svg>
