<svg width="196" height="196" viewBox="0 0 196 196" fill="none" xmlns="http://www.w3.org/2000/svg">
<path d="M178.725 106.103L182.446 105.374L183.239 100.916L179.997 98.9512L180.253 97.5177L190.761 103.943L190.534 105.219L178.464 107.568L178.725 106.103ZM183.782 105.175L187.407 104.526C187.497 104.51 187.658 104.485 187.892 104.451C188.126 104.417 188.364 104.384 188.608 104.352C188.861 104.333 189.054 104.313 189.188 104.294C188.877 104.151 188.573 104.005 188.275 103.853C187.985 103.715 187.757 103.598 187.59 103.503L184.415 101.615L183.782 105.175Z" fill="white"/>
<path d="M174.449 127.862L184.315 133.623L183.594 134.87L174.834 129.755L172.337 134.077L171.231 133.431L174.449 127.862Z" fill="white"/>
<path d="M165.59 162.333C164.456 163.304 163.44 163.788 162.542 163.784C161.644 163.781 160.85 163.372 160.161 162.558C159.754 162.078 159.481 161.533 159.341 160.922C159.2 160.327 159.275 159.68 159.564 158.983C159.846 158.292 160.421 157.576 161.288 156.834L162.284 155.98L159.409 152.587L160.503 151.65L167.888 160.367L165.59 162.333ZM164.891 161.31L165.997 160.363L163.081 156.92L162.206 157.67C161.379 158.377 160.877 159.039 160.699 159.654C160.522 160.269 160.705 160.899 161.25 161.542C161.726 162.103 162.263 162.366 162.862 162.331C163.453 162.302 164.129 161.962 164.891 161.31Z" fill="white"/>
<path d="M130.635 173.042L131.988 172.549L133.795 177.561L139.298 175.556L137.491 170.544L138.844 170.051L142.718 180.798L141.365 181.291L139.726 176.745L134.224 178.75L135.863 183.295L134.51 183.788L130.635 173.042Z" fill="white"/>
<path d="M102.961 179.867L104.282 183.423L108.81 183.494L110.224 179.979L111.68 180.002L107.04 191.403L105.744 191.383L101.473 179.843L102.961 179.867ZM104.695 184.71L105.921 188.186C105.952 188.271 106.003 188.427 106.074 188.652C106.146 188.877 106.217 189.108 106.288 189.343C106.348 189.59 106.398 189.777 106.439 189.906C106.529 189.576 106.625 189.253 106.726 188.934C106.816 188.626 106.895 188.382 106.961 188.202L108.31 184.766L104.695 184.71Z" fill="white"/>
<path d="M76.8283 189.815L73.792 188.617C72.4723 188.096 71.5477 187.502 71.0182 186.835C70.4887 186.167 70.4121 185.351 70.7884 184.387C71.0328 183.761 71.41 183.308 71.9203 183.028C72.4266 182.758 73.0305 182.692 73.7319 182.831L73.761 182.757C73.3455 182.501 72.996 182.208 72.7125 181.879C72.4191 181.545 72.2361 181.163 72.1634 180.733C72.0908 180.303 72.1612 179.815 72.3746 179.268C72.7508 178.305 73.3741 177.691 74.2445 177.426C75.105 177.158 76.1058 177.249 77.2469 177.699L80.9827 179.173L76.8283 189.815ZM77.2576 184.755L75.2929 183.98C74.39 183.624 73.7136 183.523 73.2637 183.678C72.8001 183.839 72.4557 184.208 72.2307 184.784C72.0019 185.371 72.0473 185.87 72.3671 186.283C72.6731 186.702 73.2775 187.089 74.1805 187.446L75.9368 188.138L77.2576 184.755ZM77.694 183.637L79.201 179.777L77.0577 178.932C76.1151 178.56 75.3884 178.485 74.8778 178.708C74.3671 178.931 73.9954 179.34 73.7627 179.936C73.5454 180.493 73.5644 181.016 73.8195 181.507C74.0608 182.003 74.6726 182.445 75.6549 182.833L77.694 183.637Z" fill="white"/>
<path d="M42.7558 165.76C43.5535 164.885 44.3996 164.258 45.2941 163.878C46.1737 163.499 47.069 163.396 47.9801 163.568C48.8834 163.733 49.7547 164.202 50.5942 164.975C51.465 165.778 52.0254 166.627 52.2754 167.525C52.5176 168.415 52.4816 169.317 52.1676 170.232C51.8536 171.146 51.2978 172.041 50.5001 172.916C49.7169 173.775 48.8894 174.398 48.0177 174.784C47.1388 175.178 46.2477 175.293 45.3445 175.128C44.4334 174.956 43.5385 174.465 42.6598 173.655C41.8203 172.882 41.2795 172.05 41.0374 171.16C40.7881 170.278 40.8165 169.376 41.1226 168.454C41.4138 167.533 41.9582 166.635 42.7558 165.76ZM49.393 171.874C50.3631 170.81 50.9048 169.765 51.0181 168.738C51.1243 167.719 50.7027 166.772 49.7534 165.898C48.8041 165.023 47.8332 164.687 46.8405 164.889C45.8328 165.092 44.8439 165.726 43.8738 166.79C42.9037 167.854 42.3652 168.888 42.2584 169.892C42.1444 170.904 42.5621 171.847 43.5113 172.721C44.4685 173.603 45.4473 173.946 46.4478 173.751C47.4411 173.564 48.4228 172.938 49.393 171.874Z" fill="white"/>
<path d="M28.095 139.991L28.8268 141.45L25.759 146.396L31.5605 146.899L32.2421 148.257L25.2329 147.559L21.9451 153.208L21.2276 151.778L23.9679 147.25L18.7092 146.759L18.0276 145.4L24.4654 146.101L28.095 139.991Z" fill="white"/>
<path d="M14.0563 115.102L15.1732 114.967L15.566 118.256L18.8469 117.86L18.9794 118.97L15.6985 119.365L16.0913 122.655L14.9744 122.789L14.5816 119.5L11.2929 119.897L11.1605 118.788L14.4491 118.391L14.0563 115.102Z" fill="white"/>
<path d="M17.5726 86.0422L13.8164 86.5563L12.7706 90.9618L15.8949 93.1098L15.5587 94.5265L5.43411 87.5073L5.73344 86.2463L17.9163 84.5945L17.5726 86.0422ZM12.4719 86.678L8.81561 87.1173C8.72524 87.1285 8.56252 87.1443 8.32745 87.1647C8.09239 87.1851 7.85213 87.2043 7.60669 87.2222C7.35335 87.2272 7.15951 87.2356 7.02519 87.2472C7.32702 87.4074 7.62244 87.5715 7.91144 87.7395C8.19254 87.8947 8.41386 88.0246 8.57541 88.1292L11.6367 90.1962L12.4719 86.678Z" fill="white"/>
<path d="M23.1305 64.4018L13.6214 58.0707L14.4137 56.8682L22.8574 62.49L25.6039 58.3215L26.6694 59.0309L23.1305 64.4018Z" fill="white"/>
<path d="M33.7891 30.6416C34.9782 29.7383 36.0208 29.3146 36.917 29.3706C37.8131 29.4266 38.5817 29.8809 39.2226 30.7335C39.6008 31.2365 39.8419 31.7968 39.9458 32.4144C40.0519 33.017 39.9399 33.6579 39.6099 34.3373C39.2884 35.0102 38.6733 35.6918 37.7644 36.3822L36.7197 37.1759L39.3925 40.7312L38.2459 41.6023L31.3811 32.4709L33.7891 30.6416ZM34.4275 31.7038L33.2681 32.5846L35.9794 36.1911L36.8967 35.4942C37.7631 34.8361 38.3028 34.205 38.516 33.601C38.7292 32.9971 38.5826 32.3583 38.0762 31.6847C37.6339 31.0964 37.1127 30.8025 36.5126 30.803C35.9209 30.797 35.2259 31.0973 34.4275 31.7038Z" fill="white"/>
<path d="M69.4459 21.8575L68.0656 22.2676L66.5627 17.156L60.9492 18.8237L62.4521 23.9354L61.0717 24.3455L57.8493 13.3854L59.2297 12.9753L60.5926 17.6111L66.2061 15.9433L64.8432 11.3075L66.2235 10.8974L69.4459 21.8575Z" fill="white"/>
<path d="M97.4323 16.6284L96.3315 12.9962L91.8171 12.6454L90.1901 16.0657L88.7385 15.9529L94.0687 4.86046L95.3608 4.96085L98.9158 16.7436L97.4323 16.6284ZM95.999 11.6865L94.9878 8.14152C94.9625 8.05396 94.9212 7.89561 94.8639 7.66649C94.8066 7.43736 94.7498 7.20292 94.6933 6.96316C94.6483 6.71359 94.6095 6.52335 94.5767 6.39242C94.4663 6.7155 94.351 7.03285 94.2307 7.34447C94.1219 7.64629 94.0287 7.88511 93.951 8.06096L92.3939 11.4064L95.999 11.6865Z" fill="white"/>
<path d="M123.823 8.07203L126.782 9.44954C128.069 10.0483 128.956 10.6967 129.445 11.3948C129.933 12.093 129.961 12.9119 129.528 13.8516C129.247 14.462 128.844 14.8918 128.318 15.1412C127.796 15.3808 127.19 15.4102 126.498 15.2294L126.464 15.302C126.864 15.5821 127.195 15.8952 127.459 16.2413C127.732 16.592 127.892 16.9841 127.938 17.4177C127.985 17.8513 127.886 18.3346 127.641 18.8674C127.208 19.8072 126.549 20.3829 125.664 20.5948C124.79 20.8112 123.796 20.6605 122.684 20.1428L119.043 18.4479L123.823 8.07203ZM123.094 13.0975L125.008 13.9888C125.888 14.3985 126.557 14.5394 127.016 14.4115C127.488 14.2784 127.854 13.9309 128.113 13.369C128.376 12.7974 128.36 12.2959 128.066 11.8647C127.785 11.4282 127.205 11.0052 126.325 10.5955L124.613 9.79872L123.094 13.0975ZM122.592 14.1874L120.858 17.9512L122.946 18.9236C123.865 19.3512 124.586 19.4691 125.109 19.2772C125.632 19.0853 126.027 18.6987 126.295 18.1174C126.545 17.5749 126.557 17.0512 126.332 16.5462C126.12 16.0361 125.536 15.5582 124.579 15.1125L122.592 14.1874Z" fill="white"/>
<path d="M156.935 34.3806C156.085 35.2047 155.201 35.7786 154.285 36.1023C153.384 36.4263 152.484 36.4742 151.585 36.2461C150.694 36.0257 149.853 35.5037 149.063 34.6801C148.243 33.8257 147.737 32.9429 147.542 32.0317C147.356 31.1283 147.447 30.2299 147.817 29.3366C148.187 28.4433 148.797 27.5846 149.647 26.7605C150.482 25.9513 151.346 25.3808 152.24 25.0491C153.142 24.71 154.038 24.6507 154.929 24.8711C155.828 25.0992 156.691 25.6443 157.518 26.5064C158.308 27.3301 158.797 28.1936 158.983 29.097C159.178 29.993 159.094 30.8915 158.731 31.7926C158.384 32.6939 157.785 33.5565 156.935 34.3806ZM150.688 27.8685C149.654 28.8708 149.049 29.8809 148.872 30.8987C148.703 31.9091 149.066 32.88 149.959 33.8114C150.853 34.7428 151.801 35.1382 152.804 34.9976C153.823 34.8573 154.849 34.286 155.883 33.2837C156.917 32.2815 157.518 31.2827 157.686 30.2874C157.863 29.2847 157.504 28.3176 156.61 27.3862C155.71 26.4471 154.754 26.044 153.743 26.1769C152.74 26.3024 151.722 26.8663 150.688 27.8685Z" fill="white"/>
<path d="M169.928 60.7794L169.284 59.2799L172.641 54.5264L166.878 53.6787L166.278 52.2821L173.235 53.3964L176.853 47.954L177.484 49.4241L174.48 53.7806L179.701 54.5842L180.3 55.9808L173.915 54.8979L169.928 60.7794Z" fill="white"/>
<path d="M182.557 86.7986L181.434 86.864L181.243 83.557L177.944 83.7492L177.88 82.6338L181.179 82.4417L180.988 79.1347L182.112 79.0693L182.302 82.3763L185.609 82.1837L185.673 83.299L182.366 83.4916L182.557 86.7986Z" fill="white"/>
</svg>
