<svg width="111" height="111" viewBox="0 0 111 111" fill="none" xmlns="http://www.w3.org/2000/svg">
<path d="M97.646 63.4441L101.367 62.7152L102.16 58.2572L98.9185 56.2925L99.1736 54.859L109.683 61.2842L109.455 62.5601L97.3853 64.9091L97.646 63.4441ZM102.703 62.5164L106.328 61.8678C106.418 61.8514 106.58 61.8262 106.813 61.7924C107.047 61.7585 107.285 61.7256 107.529 61.6936C107.782 61.674 107.975 61.6545 108.109 61.6352C107.798 61.4926 107.494 61.3458 107.196 61.1947C106.906 61.0559 106.678 60.939 106.511 60.8439L103.336 58.9563L102.703 62.5164Z" fill="white"/>
<path d="M95.8553 71.6444L105.721 77.4048L105 78.6516L96.2402 73.5367L93.7427 77.859L92.6373 77.2136L95.8553 71.6444Z" fill="white"/>
<path d="M93.4646 94.8624C92.3302 95.8335 91.314 96.3173 90.4162 96.3136C89.5184 96.3099 88.7248 95.9011 88.0353 95.0873C87.6285 94.6071 87.3552 94.0617 87.2154 93.4512C87.0745 92.8558 87.1489 92.2094 87.4388 91.5119C87.7205 90.8214 88.2949 90.105 89.1619 89.3628L90.1586 88.5096L87.2834 85.1157L88.3773 84.1793L95.7618 92.8958L93.4646 94.8624ZM92.7654 93.8391L93.8715 92.8922L90.955 89.4496L90.0798 90.1988C89.2533 90.9063 88.7513 91.5678 88.5736 92.1832C88.396 92.7986 88.5796 93.4278 89.1243 94.0708C89.6 94.6323 90.1374 94.8954 90.7365 94.86C91.3274 94.8315 92.0038 94.4912 92.7654 93.8391Z" fill="white"/>
<path d="M68.6457 96.8173L69.9987 96.3244L71.8058 101.337L77.308 99.332L75.5009 94.3198L76.8539 93.8268L80.7286 104.574L79.3756 105.067L77.7367 100.521L72.2345 102.526L73.8733 107.071L72.5203 107.564L68.6457 96.8173Z" fill="white"/>
<path d="M54.4209 98.866L55.7424 102.423L60.2699 102.493L61.684 98.9787L63.1398 99.0013L58.5002 110.403L57.2043 110.383L52.9331 98.8429L54.4209 98.866ZM56.1547 103.709L57.3815 107.185C57.4122 107.271 57.4631 107.426 57.5343 107.651C57.6055 107.876 57.6767 108.107 57.7477 108.343C57.808 108.589 57.8584 108.777 57.8991 108.905C57.9895 108.576 58.0852 108.252 58.1861 107.933C58.2761 107.626 58.3546 107.381 58.4213 107.201L59.7703 103.766L56.1547 103.709Z" fill="white"/>
<path d="M42.0054 109.072L38.9691 107.874C37.6494 107.354 36.7249 106.76 36.1954 106.092C35.6659 105.425 35.5893 104.609 35.9655 103.645C36.2099 103.019 36.5872 102.566 37.0974 102.286C37.6037 102.015 38.2076 101.949 38.909 102.089L38.9381 102.014C38.5227 101.758 38.1732 101.466 37.8896 101.136C37.5962 100.802 37.4132 100.421 37.3406 99.9907C37.268 99.5607 37.3384 99.0725 37.5517 98.526C37.928 97.5622 38.5513 96.9481 39.4217 96.6837C40.2822 96.4154 41.2829 96.5063 42.424 96.9565L46.1599 98.4302L42.0054 109.072ZM42.4347 104.013L40.4701 103.238C39.5671 102.881 38.8907 102.781 38.4409 102.936C37.9772 103.097 37.6329 103.466 37.4079 104.042C37.179 104.628 37.2245 105.128 37.5443 105.541C37.8502 105.959 38.4547 106.347 39.3576 106.703L41.1139 107.396L42.4347 104.013ZM42.8711 102.895L44.3781 99.0345L42.2349 98.189C41.2922 97.8172 40.5656 97.7427 40.0549 97.9655C39.5443 98.1883 39.1726 98.5978 38.9398 99.194C38.7226 99.7504 38.7415 100.274 38.9966 100.764C39.2379 101.261 39.8497 101.703 40.832 102.09L42.8711 102.895Z" fill="white"/>
<path d="M20.7198 90.0439C21.5175 89.169 22.3636 88.5416 23.2581 88.162C24.1377 87.783 25.033 87.6796 25.9441 87.8518C26.8474 88.0167 27.7187 88.4859 28.5582 89.2591C29.429 90.0613 29.9894 90.9111 30.2394 91.8085C30.4816 92.6987 30.4456 93.601 30.1316 94.5155C29.8176 95.4299 29.2618 96.3246 28.4641 97.1996C27.6809 98.0588 26.8534 98.6816 25.9817 99.0678C25.1028 99.4619 24.2117 99.5764 23.3085 99.4115C22.3974 99.2393 21.5025 98.7485 20.6238 97.9391C19.7843 97.1658 19.2435 96.3341 19.0014 95.4439C18.7521 94.5616 18.7805 93.6596 19.0866 92.7379C19.3778 91.8169 19.9222 90.9189 20.7198 90.0439ZM27.357 96.1579C28.3271 95.0938 28.8688 94.0483 28.9821 93.0215C29.0883 92.0026 28.6667 91.0559 27.7174 90.1814C26.7681 89.307 25.7972 88.9709 24.8045 89.1731C23.7968 89.3761 22.8079 90.0096 21.8378 91.0738C20.8677 92.138 20.3292 93.1719 20.2224 94.1758C20.1084 95.1874 20.5261 96.1305 21.4753 97.005C22.4325 97.8867 23.4113 98.23 24.4118 98.0349C25.4051 97.8478 26.3868 97.2221 27.357 96.1579Z" fill="white"/>
<path d="M16.6455 74.2077L17.3773 75.6664L14.3094 80.6121L20.111 81.1151L20.7926 82.4737L13.7834 81.7757L10.4956 87.4249L9.77811 85.9948L12.5183 81.4663L7.25971 80.9751L6.57809 79.6165L13.0158 80.3172L16.6455 74.2077Z" fill="white"/>
<path d="M8.57118 61.2221L9.68807 61.0874L10.0809 64.3765L13.3617 63.9806L13.4942 65.0899L10.2133 65.4858L10.6061 68.7749L9.48923 68.9097L9.09644 65.6206L5.8078 66.0174L5.67533 64.9081L8.96397 64.5113L8.57118 61.2221Z" fill="white"/>
<path d="M13.7106 45.5738L9.9543 46.0878L8.9085 50.4933L12.0329 52.6414L11.6966 54.058L1.57203 47.0388L1.87136 45.7778L14.0542 44.126L13.7106 45.5738ZM8.60983 46.2095L4.95353 46.6488C4.86316 46.66 4.70044 46.6758 4.46537 46.6962C4.23031 46.7166 3.99005 46.7358 3.74462 46.7537C3.49127 46.7587 3.29743 46.7671 3.16311 46.7787C3.46495 46.9389 3.76036 47.103 4.04937 47.271C4.33046 47.4262 4.55178 47.5561 4.71333 47.6607L7.77467 49.7278L8.60983 46.2095Z" fill="white"/>
<path d="M15.9922 37.4047L6.48301 31.0735L7.27529 29.8711L15.719 35.4929L18.4655 31.3244L19.531 32.0337L15.9922 37.4047Z" fill="white"/>
<path d="M19.6244 14.4384C20.8135 13.5351 21.8561 13.1114 22.7523 13.1674C23.6484 13.2234 24.417 13.6777 25.0579 14.5303C25.4361 15.0333 25.6772 15.5936 25.7811 16.2112C25.8872 16.8138 25.7752 17.4547 25.4452 18.1341C25.1237 18.807 24.5085 19.4886 23.5997 20.179L22.555 20.9726L25.2278 24.528L24.0811 25.3991L17.2164 16.2677L19.6244 14.4384ZM20.2628 15.5006L19.1034 16.3814L21.8147 19.9879L22.732 19.291C23.5983 18.6329 24.1381 18.0018 24.3513 17.3978C24.5645 16.7939 24.4179 16.1551 23.9115 15.4815C23.4692 14.8932 22.948 14.5993 22.3479 14.5998C21.7562 14.5938 21.0612 14.8941 20.2628 15.5006Z" fill="white"/>
<path d="M44.5907 13.8704L43.2104 14.2805L41.7075 9.16889L36.094 10.8366L37.5969 15.9483L36.2165 16.3584L32.9941 5.39829L34.3745 4.98818L35.7374 9.62397L41.3509 7.95622L39.988 3.32043L41.3683 2.91033L44.5907 13.8704Z" fill="white"/>
<path d="M58.8821 12.6431L57.7814 9.01091L53.267 8.66016L51.6399 12.0804L50.1883 11.9676L55.5185 0.875183L56.8106 0.975574L60.3656 12.7584L58.8821 12.6431ZM57.4488 7.70121L56.4377 4.15624C56.4123 4.06868 56.371 3.91033 56.3137 3.68121C56.2564 3.45209 56.1996 3.21764 56.1431 2.97788C56.0981 2.72831 56.0593 2.53807 56.0266 2.40714C55.9161 2.73022 55.8008 3.04757 55.6805 3.35919C55.5717 3.66101 55.4785 3.89983 55.4008 4.07568L53.8437 7.42111L57.4488 7.70121Z" fill="white"/>
<path d="M71.7278 3.08337L74.6868 4.46088C75.973 5.0596 76.8604 5.70803 77.3491 6.40616C77.8379 7.1043 77.8657 7.92324 77.4328 8.86298C77.1516 9.47332 76.7481 9.90317 76.2222 10.1525C75.7008 10.3922 75.0941 10.4216 74.4023 10.2407L74.3689 10.3134C74.7683 10.5934 75.0997 10.9066 75.363 11.2527C75.636 11.6033 75.796 11.9954 75.8428 12.4291C75.8897 12.8627 75.7904 13.3459 75.5449 13.8787C75.112 14.8185 74.4533 15.3943 73.5689 15.6061C72.6941 15.8225 71.7007 15.6718 70.5886 15.1541L66.9478 13.4593L71.7278 3.08337ZM70.9981 8.10884L72.9128 9.00017C73.7927 9.40982 74.4618 9.5507 74.9201 9.4228C75.3924 9.28972 75.758 8.94222 76.0169 8.38032C76.2802 7.80872 76.2646 7.30729 75.97 6.87602C75.6896 6.43956 75.1094 6.01651 74.2294 5.60686L72.5178 4.81006L70.9981 8.10884ZM70.496 9.19875L68.762 12.9626L70.8508 13.9349C71.7695 14.3626 72.4903 14.4805 73.0132 14.2886C73.5361 14.0967 73.9315 13.7101 74.1993 13.1288C74.4492 12.5863 74.4615 12.0625 74.2361 11.5576C74.0248 11.0474 73.4405 10.5695 72.4832 10.1238L70.496 9.19875Z" fill="white"/>
<path d="M92.1311 23.5033C91.281 24.3273 90.3977 24.9012 89.4815 25.2249C88.5802 25.5489 87.6802 25.5969 86.7815 25.3688C85.8901 25.1484 85.0494 24.6263 84.2593 23.8027C83.4397 22.9483 82.9328 22.0655 82.7387 21.1544C82.5519 20.2509 82.6435 19.3526 83.0133 18.4592C83.3832 17.5659 83.9932 16.7072 84.8433 15.8831C85.6782 15.0739 86.5425 14.5034 87.4364 14.1717C88.3379 13.8326 89.2343 13.7733 90.1257 13.9937C91.0244 14.2218 91.8873 14.7669 92.7143 15.629C93.5044 16.4527 93.9928 17.3162 94.1796 18.2196C94.374 19.1157 94.2899 20.0142 93.9274 20.9152C93.58 21.8165 92.9812 22.6792 92.1311 23.5033ZM85.8841 16.9911C84.8501 17.9934 84.2449 19.0035 84.0684 20.0213C83.8996 21.0317 84.2619 22.0027 85.1554 22.9341C86.0489 23.8655 86.9972 24.2609 88.0005 24.1203C89.0188 23.9799 90.0449 23.4086 91.0788 22.4064C92.1128 21.4041 92.7141 20.4053 92.8826 19.41C93.0588 18.4073 92.7002 17.4402 91.8067 16.5088C90.9059 15.5697 89.9501 15.1666 88.9395 15.2995C87.9365 15.425 86.918 15.9889 85.8841 16.9911Z" fill="white"/>
<path d="M95.204 39.4354L94.5599 37.9359L97.9163 33.1824L92.154 32.3347L91.554 30.9381L98.5105 32.0524L102.128 26.61L102.76 28.0801L99.7552 32.4366L104.976 33.2402L105.576 34.6368L99.1903 33.5539L95.204 39.4354Z" fill="white"/>
<path d="M102.537 53.0659L101.414 53.1314L101.224 49.8243L97.9246 50.0165L97.8603 48.9012L101.159 48.709L100.969 45.402L102.092 45.3366L102.283 48.6436L105.589 48.451L105.654 49.5663L102.347 49.7589L102.537 53.0659Z" fill="white"/>
</svg>
