<svg width="19" height="18" viewBox="0 0 19 18" fill="none" xmlns="http://www.w3.org/2000/svg">
<path d="M9.5 11C8.95 11 8.47917 10.8042 8.0875 10.4125C7.69583 10.0208 7.5 9.55 7.5 9C7.5 8.45 7.69583 7.97917 8.0875 7.5875C8.47917 7.19583 8.95 7 9.5 7C10.05 7 10.5208 7.19583 10.9125 7.5875C11.3042 7.97917 11.5 8.45 11.5 9C11.5 9.55 11.3042 10.0208 10.9125 10.4125C10.5208 10.8042 10.05 11 9.5 11ZM8.5 5V0H10.5V5H8.5ZM8.5 18V13H10.5V18H8.5ZM13.5 10V8H18.5V10H13.5ZM0.5 10V8H5.5V10H0.5Z" fill="black"/>
</svg>
